<svg width="128" height="128" viewBox="0 0 128 128" fill="none" xmlns="http://www.w3.org/2000/svg">
  <rect width="128" height="128" rx="36" fill="url(#paint0_linear)"/>
  <path d="M64 23C48.12 23 35.25 35.92 35.25 51.86C35.25 77.42 64 104 64 104C64 104 92.75 77.42 92.75 51.86C92.75 35.92 79.88 23 64 23Z" fill="#F8FEFF"/>
  <path d="M64 39C56.56 39 50.5 45.13 50.5 52.67C50.5 60.2 56.56 66.33 64 66.33C71.44 66.33 77.5 60.2 77.5 52.67C77.5 45.13 71.44 39 64 39Z" fill="#0F766E"/>
  <path d="M64 76.5C55.72 76.5 48.34 72.58 43.6 66.48C47.38 78.85 57.61 89.12 64 94.28C70.39 89.12 80.62 78.85 84.4 66.48C79.66 72.58 72.28 76.5 64 76.5Z" fill="#5EEAD4"/>
  <defs>
    <linearGradient id="paint0_linear" x1="15" y1="14" x2="113" y2="114" gradientUnits="userSpaceOnUse">
      <stop stop-color="#5EEAD4"/>
      <stop offset="1" stop-color="#0F172A"/>
    </linearGradient>
  </defs>
</svg>
